<svg width="15" height="16" viewBox="0 0 15 16" fill="none" xmlns="http://www.w3.org/2000/svg">
<g clip-path="url(#clip0)">
<path d="M10.7754 0.96875H4.21289C2.14182 0.96875 0.462891 2.64768 0.462891 4.71875V11.2812C0.462891 13.3523 2.14182 15.0312 4.21289 15.0312H10.7754C12.8465 15.0312 14.5254 13.3523 14.5254 11.2812V4.71875C14.5254 2.64768 12.8465 0.96875 10.7754 0.96875Z" stroke="#424141" stroke-width="0.9375" stroke-linecap="round" stroke-linejoin="round"/>
<path d="M7.49414 11.125C9.22003 11.125 10.6191 9.72589 10.6191 8C10.6191 6.27411 9.22003 4.875 7.49414 4.875C5.76825 4.875 4.36914 6.27411 4.36914 8C4.36914 9.72589 5.76825 11.125 7.49414 11.125Z" stroke="#424141" stroke-width="0.9375" stroke-linecap="round" stroke-linejoin="round"/>
<path d="M12.0879 3.71875C12.0879 3.80163 12.055 3.88112 11.9964 3.93972C11.9378 3.99833 11.8583 4.03125 11.7754 4.03125C11.6925 4.03125 11.613 3.99833 11.5544 3.93972C11.4958 3.88112 11.4629 3.80163 11.4629 3.71875" stroke="#424141" stroke-width="0.9375" stroke-linecap="round" stroke-linejoin="round"/>
<path d="M11.4629 3.71875C11.4629 3.63587 11.4958 3.55638 11.5544 3.49778C11.613 3.43917 11.6925 3.40625 11.7754 3.40625C11.8583 3.40625 11.9378 3.43917 11.9964 3.49778C12.055 3.55638 12.0879 3.63587 12.0879 3.71875" stroke="#424141" stroke-width="0.9375" stroke-linecap="round" stroke-linejoin="round"/>
</g>
<defs>
<clipPath id="clip0">
<rect width="15" height="15" fill="white" transform="translate(0 0.5)"/>
</clipPath>
</defs>
</svg>
